inDegrees=yes
name=ik_lifting_orientations
DataType=double
version=3
OpenSimVersion=4.5-2024-01-10-34fd6af
endheader
time	pelvis_tilt	pelvis_list	pelvis_rotation	pelvis_tx	pelvis_ty	pelvis_tz	hip_flexion_r	hip_adduction_r	hip_rotation_r	knee_angle_r	knee_angle_r_beta	ankle_angle_r	subtalar_angle_r	mtp_angle_r	hip_flexion_l	hip_adduction_l	hip_rotation_l	knee_angle_l	knee_angle_l_beta	ankle_angle_l	subtalar_angle_l	mtp_angle_l	lumbar_extension	lumbar_bending	lumbar_rotation	arm_flex_r	arm_add_r	arm_rot_r	elbow_flex_r	pro_sup_r	wrist_flex_r	wrist_dev_r	arm_flex_l	arm_add_l	arm_rot_l	elbow_flex_l	pro_sup_l	wrist_flex_l	wrist_dev_l
0.86	-2.31335786965049	-14.26780392842605	-121.6797605867505	0	0.9399999998497812	0	42.74871743139671	-10.04912570140869	0	59.06306878667164	1.030845016659312	-4.992449778260845	0	0	42.74871743139671	-10.04912570140869	0	59.06306878667164	1.030845016659312	-4.992449778260845	0	0	-61.21218805031199	-20.95279972849638	4.802847243730736	42.27452698447753	13.6255911063616	9.301138997254322	18.43149720739992	45.01178402965402	0	0	0	-11.18027491318203	0	75.84774206181328	45.01178402965402	0	0
0.87	-2.364253471788807	-14.52142457879628	-123.2355135361041	0	0.9399999998497812	0	42.74954439295618	-10.04906275563555	0	59.06333887686782	1.030849730622513	-4.9924623945553	0	0	42.74954439295618	-10.04906275563555	0	59.06333887686782	1.030849730622513	-4.9924623945553	0	0	-62.76824129197698	-22.7205366850128	4.689040577541573	42.6139031676998	13.61433603056549	9.544931660193159	19.59962010766147	45.01177208404195	0	0	0	-11.18099370516381	0	75.84743096566343	45.01177208404195	0	0
0.88	-2.421617791743269	-14.81041046651783	-124.7951627223754	0	0.9399999998497812	0	42.75082304083703	-10.04896550849806	0	59.06375643945572	1.030857018464505	-4.992481877847555	0	0	42.75082304083703	-10.04896550849806	0	59.06375643945572	1.030857018464505	-4.992481877847555	0	0	-65.03830845715245	-24.30775603777763	4.030685243344188	44.65573216385091	14.00067583513173	9.835746174185884	19.49836927343009	45.01175362384241	0	0	0	-11.18210517535264	0	75.84694994849613	45.01175362384241	0	0
0.89	-2.660311034684717	-16.02132912536457	-125.6537951463485	0	0.9399999998497812	0	42.75213866276293	-10.04886553969157	0	59.06418598969027	1.030864515530401	-4.992501896769769	0	0	42.75213866276293	-10.04886553969157	0	59.06418598969027	1.030864515530401	-4.992501896769769	0	0	-67.83864935710616	-25.56562893912707	2.945391227211285	46.14773142692647	14.9593049613376	9.858738718880359	19.23051485229119	45.01173464109782	0	0	0	-11.18324883888048	0	75.84645502160991	45.01173464109782	0	0
0.9	-2.732378879685194	-16.31912335210001	-127.2106448461576	0	0.9399999998497812	0	42.75277734216768	-10.04881782297677	0	59.0643972112203	1.030868202041551	-4.992511418765507	0	0	42.75277734216768	-10.04881782297677	0	59.0643972112203	1.030868202041551	-4.992511418765507	0	0	-67.90341094830872	-27.03270532727328	3.455523777598277	46.13487608936356	14.95322879957616	9.871632923675925	19.2734959349524	45.01172555216393	0	0	0	-11.18380922739269	0	75.84621475010573	45.01172555216393	0	0
0.91	-3.435171244169474	-16.94030493401309	-128.0870458240195	0	0.9399999998497812	0	42.75401775383427	-10.04872364226027	0	59.0648017773692	1.030875263052891	-4.992530265599187	0	0	42.75401775383427	-10.04872364226027	0	59.0648017773692	1.030875263052891	-4.992530265599187	0	0	-69.7711993706224	-27.66298976370191	3.172528287336168	46.6045498703125	15.22747226003644	10.13928340841191	19.66897858928508	45.01170766118556	0	0	0	-11.18488701463535	0	75.84574811673016	45.01170766118556	0	0
0.92	-3.821000905087746	-16.72054265881973	-129.0827218005431	0	0.9399999998497812	0	42.75487938038678	-10.048658332038	0	59.06508298708933	1.030880171088396	-4.992543327779643	0	0	42.75487938038678	-10.048658332038	0	59.06508298708933	1.030880171088396	-4.992543327779643	0	0	-71.16045956486404	-27.62149434266522	2.544723714401907	47.20559485991176	15.25970821499035	11.34447563110424	20.14903469977135	45.01169524945855	0	0	0	-11.18563613705585	0	75.84542397880608	45.01169524945855	0	0
0.93	-4.184090198193071	-16.49821166024196	-130.0787354312749	0	0.9399999998497812	0	42.75585503223353	-10.04858444689206	0	59.06540143691535	1.030885729086363	-4.992558099106777	0	0	42.75585503223353	-10.04858444689206	0	59.06540143691535	1.030885729086363	-4.992558099106777	0	0	-72.03615815560883	-28.40055977827677	2.535089412244495	48.23009174312031	16.05613631872515	11.50552288371019	19.85572344016057	45.01168120433726	0	0	0	-11.18648455883056	0	75.84505694502899	45.01168120433726	0	0
0.9399999999999999	-3.878256187476577	-17.32139686271806	-131.6626923404958	0	0.9399999998497812	0	42.75851742660459	-10.04838532726183	0	59.06627526346297	1.03090098023671	-4.992597757159522	0	0	42.75851742660459	-10.04838532726183	0	59.06627526346297	1.03090098023671	-4.992597757159522	0	0	-74.26273926168706	-30.51095002258503	1.183658924810474	49.88225679733875	15.75011005074957	11.34862611492932	20.74696884737946	45.01164324168262	0	0	0	-11.18881000681596	0	75.84405535766315	45.01164324168262	0	0
0.95	-4.613756383790353	-17.92542429497737	-132.5327007659957	0	0.9399999998497812	0	42.75971320087945	-10.04829592842172	0	59.06666834370946	1.030907840781236	-4.992615567351284	0	0	42.75971320087945	-10.04829592842172	0	59.06666834370946	1.030907840781236	-4.992615567351284	0	0	-76.23699497640196	-31.1277201770273	0.684568923477513	50.89783582333935	15.90577314788266	11.47466260817485	20.7460147404309	45.01162620005812	0	0	0	-11.18985573646931	0	75.84360550859674	45.01162620005812	0	0
0.96	-5.359139679899159	-18.51860117331482	-133.4140708916009	0	0.9399999998497812	0	42.76116594686877	-10.04818674670255	0	59.06714348667261	1.03091613359036	-4.992637334597556	0	0	42.76116594686877	-10.04818674670255	0	59.06714348667261	1.03091613359036	-4.992637334597556	0	0	-78.25625808525534	-31.74458126323311	0.1066805124867236	52.2938290234305	15.32438529860335	11.38035588416539	21.36113187092593	45.0116054037288	0	0	0	-11.19112184705726	0	75.84305899093502	45.0116054037288	0	0
0.97	-4.737875815587916	-18.1789850676325	-134.1511774278972	0	0.9399999998497812	0	42.76199847378297	-10.04812465728697	0	59.06741727326961	1.030920912067926	-4.992649691935997	0	0	42.76199847378297	-10.04812465728697	0	59.06741727326961	1.030920912067926	-4.992649691935997	0	0	-77.60188382502866	-32.68932756129571	0.1237326746058108	52.29063439541892	15.3102738176288	11.38203034252382	21.35877490244287	45.01159355986065	0	0	0	-11.19185037583726	0	75.84274579435626	45.01159355986065	0	0
0.98	-5.512314980138474	-18.74832496109155	-135.0454924185855	0	0.9399999998497812	0	42.76332139193091	-10.04802574556509	0	59.06785096220395	1.030928481367759	-4.992669380311435	0	0	42.76332139193091	-10.04802574556509	0	59.06785096220395	1.030928481367759	-4.992669380311435	0	0	-79.83222310615713	-33.42187950951806	-0.601591980480033	53.80444839028372	14.93940744057942	11.22767431288648	22.14976311535942	45.01157469689821	0	0	0	-11.19300564232714	0	75.84224811461482	45.01157469689821	0	0
0.99	-4.890454800398107	-18.40678400553741	-135.7680899527808	0	0.9399999998497812	0	42.76569918372228	-10.04784862734514	0	59.068629948506	1.030942077243558	-4.992704570208224	0	0	42.76569918372228	-10.04784862734514	0	59.068629948506	1.030942077243558	-4.992704570208224	0	0	-80.67009743254107	-34.45386543546169	-1.666157764327081	55.21348581469073	14.18142932739448	11.13319298805417	23.31104349826768	45.01154087705917	0	0	0	-11.19508197910504	0	75.84135359152381	45.01154087705917	0	0
1	-5.683869029372478	-18.95900161860583	-136.6777424647608	0	0.9399999998497812	0	42.77682670376239	-10.04715942168613	0	59.07301519844277	1.031018614293478	-4.992837581079084	0	0	42.77682670376239	-10.04715942168613	0	59.07301519844277	1.031018614293478	-4.992837581079084	0	0	-81.43219496871728	-35.06081256748934	-1.368042157171582	55.39044859459536	13.7583061378049	11.03072091918063	24.22568707359343	45.01140539960657	0	0	0	-11.20597901063514	0	75.83716645251518	45.01140539960657	0	0
1.01	-6.444007707597383	-19.54558874416977	-137.600125380079	0	0.9399999998497812	0	42.77977599663498	-10.04694333361417	0	59.07398408589483	1.031035524569597	-4.992880246291262	0	0	42.77977599663498	-10.04694333361417	0	59.07398408589483	1.031035524569597	-4.992880246291262	0	0	-83.57457721098079	-35.7012582224738	-2.176043167836027	56.5036614203519	13.80268746877551	11.13787528129111	25.25362302756456	45.01136395463553	0	0	0	-11.20856567222105	0	75.83605691251606	45.01136395463553	0	0
1.02	-6.444420394087375	-19.53299402201615	-137.5944128824271	0	0.9399999998497812	0	42.78113792966961	-10.04684301986605	0	59.07443032769095	1.0310433129582	-4.992900081612354	0	0	42.78113792966961	-10.04684301986605	0	59.07443032769095	1.0310433129582	-4.992900081612354	0	0	-84.87945721514156	-35.64527608296539	-3.135371811905951	57.82877501399473	13.35930162485134	11.03963632305208	26.03400343279269	45.01134473782735	0	0	0	-11.20975803734035	0	75.83554454803371	45.01134473782735	0	0
1.03	-6.55707560841677	-19.63046947292531	-138.4160034472962	0	0.9399999998497812	0	42.7960693925934	-10.04586782183241	0	59.08002113774199	1.031140891001444	-4.993089163281502	0	0	42.7960693925934	-10.04586782183241	0	59.08002113774199	1.031140891001444	-4.993089163281502	0	0	-84.94814765248044	-36.43192254983449	-3.011876475413777	58.08708561510544	12.72869263634359	10.81162427519634	26.80250542751995	45.01115434926955	0	0	0	-11.22389200737645	0	75.82992644012052	45.01115434926955	0	0
1.04	-6.610877280022343	-19.75781439763087	-139.2387582004195	0	0.9399999998497812	0	42.80631315501882	-10.04533365868788	0	59.08419215919993	1.031213689059056	-4.993186727705116	0	0	42.80631315501882	-10.04533365868788	0	59.08419215919993	1.031213689059056	-4.993186727705116	0	0	-85.50797713700334	-37.4734734064577	-3.332715369685773	58.56058247958403	12.71521077050936	10.59963020466243	28.64123951327705	45.01104476393169	0	0	0	-11.23441709442348	0	75.82607122149679	45.01104476393169	0	0
1.05	-6.60324782685373	-19.73225768682841	-139.2394246958124	0	0.9399999998497812	0	42.81811499019545	-10.04473037929797	0	59.08902208357703	1.031297987142059	-4.993296218180724	0	0	42.81811499019545	-10.04473037929797	0	59.08902208357703	1.031297987142059	-4.993296218180724	0	0	-86.7264307568613	-36.32578081152673	-4.578145605508675	59.71900264204817	11.85979247895493	11.55179345497572	30.41064445918871	45.0109203947253	0	0	0	-11.2466173046142	0	75.82162955515101	45.0109203947253	0	0
